<mxfile host="Electron" modified="2024-02-05T17:32:04.770Z" agent="Mozilla/5.0 (Windows NT 10.0; Win64; x64) AppleWebKit/537.36 (KHTML, like Gecko) draw.io/22.0.2 Chrome/114.0.5735.289 Electron/25.8.4 Safari/537.36" etag="4MzqJ20TEK5a1mAzKU9N" version="22.0.2" type="device">
  <diagram name="第 1 页" id="bW6Wh0Hh_1q7KBV_bRJt">
    <mxGraphModel dx="1863" dy="1823" grid="1" gridSize="10" guides="1" tooltips="1" connect="1" arrows="1" fold="1" page="1" pageScale="1" pageWidth="827" pageHeight="1169" math="0" shadow="0">
      <root>
        <mxCell id="0" />
        <mxCell id="1" parent="0" />
        <mxCell id="eY0scxPz2fAlMnlfsHVv-3" value="" style="rounded=1;whiteSpace=wrap;html=1;fillColor=#cce5ff;dashed=1;dashPattern=8 8;strokeColor=#36393d;glass=0;" vertex="1" parent="1">
          <mxGeometry x="-100" y="-460" width="610" height="270" as="geometry" />
        </mxCell>
        <mxCell id="1d4aS4gsxzKnWtaEz5ml-22" value="" style="rounded=1;whiteSpace=wrap;html=1;fillColor=#cce5ff;dashed=1;dashPattern=8 8;strokeColor=#36393d;glass=0;" parent="1" vertex="1">
          <mxGeometry x="-100" y="-780" width="610" height="310" as="geometry" />
        </mxCell>
        <mxCell id="1d4aS4gsxzKnWtaEz5ml-1" value="&lt;b&gt;&lt;font color=&quot;#000066&quot; style=&quot;font-size: 20px;&quot;&gt;Ungraphs&lt;/font&gt;&lt;/b&gt;" style="rounded=1;whiteSpace=wrap;html=1;fillColor=#cce5ff;strokeColor=none;glass=0;shadow=0;perimeterSpacing=4;direction=east;rotation=0;arcSize=50;" parent="1" vertex="1">
          <mxGeometry x="110" y="-460" width="170" height="50" as="geometry" />
        </mxCell>
        <mxCell id="1d4aS4gsxzKnWtaEz5ml-17" value="" style="rounded=1;whiteSpace=wrap;html=1;fillColor=#b1ddf0;dashed=1;dashPattern=8 8;strokeColor=#10739e;" parent="1" vertex="1">
          <mxGeometry x="215" y="-720" width="210" height="240" as="geometry" />
        </mxCell>
        <mxCell id="1d4aS4gsxzKnWtaEz5ml-7" value="&lt;font color=&quot;#004c99&quot; style=&quot;font-size: 16px;&quot;&gt;&lt;b style=&quot;&quot;&gt;Trees&lt;/b&gt;&lt;/font&gt;" style="rounded=1;whiteSpace=wrap;html=1;fillColor=#dae8fc;gradientColor=#7ea6e0;strokeColor=#6c8ebf;glass=1;" parent="1" vertex="1">
          <mxGeometry x="265" y="-680" width="110" height="30" as="geometry" />
        </mxCell>
        <mxCell id="1d4aS4gsxzKnWtaEz5ml-8" value="&lt;font color=&quot;#004c99&quot; style=&quot;font-size: 16px;&quot;&gt;&lt;b style=&quot;&quot;&gt;Graphs&lt;/b&gt;&lt;/font&gt;" style="rounded=1;whiteSpace=wrap;html=1;fillColor=#dae8fc;gradientColor=#7ea6e0;strokeColor=#6c8ebf;glass=1;" parent="1" vertex="1">
          <mxGeometry x="265" y="-550" width="110" height="30" as="geometry" />
        </mxCell>
        <mxCell id="1d4aS4gsxzKnWtaEz5ml-18" value="&lt;font color=&quot;#004c99&quot; style=&quot;font-size: 16px;&quot;&gt;&lt;b style=&quot;&quot;&gt;Non-Linear&lt;/b&gt;&lt;/font&gt;" style="rounded=0;whiteSpace=wrap;html=1;glass=0;fillColor=#b1ddf0;strokeColor=none;" parent="1" vertex="1">
          <mxGeometry x="270" y="-710" width="100" height="20" as="geometry" />
        </mxCell>
        <mxCell id="1d4aS4gsxzKnWtaEz5ml-25" value="&lt;font color=&quot;#004c99&quot;&gt;&lt;b&gt;BST&lt;/b&gt;&lt;/font&gt;" style="rounded=1;whiteSpace=wrap;html=1;fillColor=#dae8fc;gradientColor=#7ea6e0;strokeColor=#6c8ebf;glass=1;" parent="1" vertex="1">
          <mxGeometry x="265" y="-640" width="50" height="20" as="geometry" />
        </mxCell>
        <mxCell id="1d4aS4gsxzKnWtaEz5ml-26" value="&lt;font color=&quot;#004c99&quot;&gt;&lt;b&gt;heaps&lt;/b&gt;&lt;/font&gt;" style="rounded=1;whiteSpace=wrap;html=1;fillColor=#dae8fc;gradientColor=#7ea6e0;strokeColor=#6c8ebf;glass=1;" parent="1" vertex="1">
          <mxGeometry x="325" y="-640" width="50" height="20" as="geometry" />
        </mxCell>
        <mxCell id="1d4aS4gsxzKnWtaEz5ml-29" value="&lt;font color=&quot;#004c99&quot;&gt;&lt;b&gt;Fenwick Tree&lt;/b&gt;&lt;/font&gt;" style="rounded=1;whiteSpace=wrap;html=1;fillColor=#dae8fc;gradientColor=#7ea6e0;strokeColor=#6c8ebf;glass=1;" parent="1" vertex="1">
          <mxGeometry x="275" y="-610" width="90" height="20" as="geometry" />
        </mxCell>
        <mxCell id="1d4aS4gsxzKnWtaEz5ml-30" value="&lt;font color=&quot;#004c99&quot;&gt;&lt;b&gt;Segment Tree&lt;/b&gt;&lt;/font&gt;" style="rounded=1;whiteSpace=wrap;html=1;fillColor=#dae8fc;gradientColor=#7ea6e0;strokeColor=#6c8ebf;glass=1;" parent="1" vertex="1">
          <mxGeometry x="275" y="-580" width="90" height="20" as="geometry" />
        </mxCell>
        <mxCell id="1d4aS4gsxzKnWtaEz5ml-16" value="" style="rounded=1;whiteSpace=wrap;html=1;fillColor=#bac8d3;dashed=1;dashPattern=8 8;strokeColor=#23445d;glass=0;" parent="1" vertex="1">
          <mxGeometry x="-10" y="-720" width="210" height="240" as="geometry" />
        </mxCell>
        <mxCell id="1d4aS4gsxzKnWtaEz5ml-2" value="&lt;font style=&quot;font-size: 16px;&quot;&gt;&lt;b&gt;Arrays&lt;/b&gt;&lt;/font&gt;" style="rounded=1;whiteSpace=wrap;html=1;fillColor=#f5f5f5;gradientColor=#b3b3b3;strokeColor=#666666;glass=1;" parent="1" vertex="1">
          <mxGeometry x="40" y="-680" width="110" height="30" as="geometry" />
        </mxCell>
        <mxCell id="1d4aS4gsxzKnWtaEz5ml-3" value="&lt;font style=&quot;font-size: 16px;&quot;&gt;&lt;b&gt;Linked Lists&lt;/b&gt;&lt;/font&gt;" style="rounded=1;whiteSpace=wrap;html=1;fillColor=#f5f5f5;gradientColor=#b3b3b3;strokeColor=#666666;glass=1;" parent="1" vertex="1">
          <mxGeometry x="40" y="-610" width="110" height="30" as="geometry" />
        </mxCell>
        <mxCell id="1d4aS4gsxzKnWtaEz5ml-4" value="&lt;font style=&quot;font-size: 16px;&quot;&gt;&lt;b&gt;Stacks&lt;/b&gt;&lt;/font&gt;" style="rounded=1;whiteSpace=wrap;html=1;fillColor=#f5f5f5;gradientColor=#b3b3b3;strokeColor=#666666;glass=1;" parent="1" vertex="1">
          <mxGeometry x="40" y="-570" width="110" height="30" as="geometry" />
        </mxCell>
        <mxCell id="1d4aS4gsxzKnWtaEz5ml-5" value="&lt;font style=&quot;font-size: 16px;&quot;&gt;&lt;b&gt;Queues&lt;/b&gt;&lt;/font&gt;" style="rounded=1;whiteSpace=wrap;html=1;fillColor=#f5f5f5;gradientColor=#b3b3b3;strokeColor=#666666;glass=1;" parent="1" vertex="1">
          <mxGeometry x="40" y="-530" width="110" height="30" as="geometry" />
        </mxCell>
        <mxCell id="1d4aS4gsxzKnWtaEz5ml-19" value="&lt;font color=&quot;#000408&quot; style=&quot;font-size: 16px;&quot;&gt;&lt;b style=&quot;&quot;&gt;Linear&lt;/b&gt;&lt;/font&gt;" style="rounded=0;whiteSpace=wrap;html=1;glass=0;fillColor=#bac8d3;strokeColor=none;" parent="1" vertex="1">
          <mxGeometry x="45" y="-710" width="100" height="20" as="geometry" />
        </mxCell>
        <mxCell id="rtU4ZeVbuxCCYYdsal-L-1" value="&lt;b&gt;&lt;font color=&quot;#000066&quot; style=&quot;font-size: 20px;&quot;&gt;Graphs Like&lt;/font&gt;&lt;/b&gt;" style="rounded=1;whiteSpace=wrap;html=1;fillColor=#cce5ff;strokeColor=none;glass=0;shadow=0;perimeterSpacing=4;direction=east;rotation=0;arcSize=50;" parent="1" vertex="1">
          <mxGeometry x="130" y="-770" width="170" height="50" as="geometry" />
        </mxCell>
        <mxCell id="eY0scxPz2fAlMnlfsHVv-1" value="&lt;b style=&quot;&quot;&gt;String&lt;/b&gt;" style="rounded=1;whiteSpace=wrap;html=1;fillColor=#f5f5f5;gradientColor=#b3b3b3;strokeColor=#666666;glass=1;" vertex="1" parent="1">
          <mxGeometry x="40" y="-640" width="50" height="20" as="geometry" />
        </mxCell>
        <mxCell id="eY0scxPz2fAlMnlfsHVv-2" value="" style="group" vertex="1" connectable="0" parent="1">
          <mxGeometry x="90" y="-410" width="210" height="190" as="geometry" />
        </mxCell>
        <mxCell id="1d4aS4gsxzKnWtaEz5ml-20" value="" style="rounded=1;whiteSpace=wrap;html=1;fillColor=#d5e8d4;dashed=1;dashPattern=8 8;strokeColor=#82b366;" parent="eY0scxPz2fAlMnlfsHVv-2" vertex="1">
          <mxGeometry width="210" height="190" as="geometry" />
        </mxCell>
        <mxCell id="1d4aS4gsxzKnWtaEz5ml-10" value="&lt;font color=&quot;#00994d&quot; style=&quot;font-size: 16px;&quot;&gt;&lt;b style=&quot;&quot;&gt;Hash&lt;/b&gt;&lt;/font&gt;" style="rounded=1;whiteSpace=wrap;html=1;fillColor=#d5e8d4;strokeColor=#82b366;glass=1;gradientColor=#97d077;" parent="eY0scxPz2fAlMnlfsHVv-2" vertex="1">
          <mxGeometry x="50" y="50" width="110" height="30" as="geometry" />
        </mxCell>
        <mxCell id="1d4aS4gsxzKnWtaEz5ml-21" value="&lt;font color=&quot;#00994d&quot; style=&quot;font-size: 16px;&quot;&gt;&lt;b style=&quot;&quot;&gt;Another&lt;/b&gt;&lt;/font&gt;" style="rounded=0;whiteSpace=wrap;html=1;glass=0;fillColor=#d5e8d4;strokeColor=none;" parent="eY0scxPz2fAlMnlfsHVv-2" vertex="1">
          <mxGeometry x="55" y="10" width="100" height="20" as="geometry" />
        </mxCell>
        <mxCell id="1d4aS4gsxzKnWtaEz5ml-27" value="&lt;font color=&quot;#00994d&quot; style=&quot;font-size: 16px;&quot;&gt;&lt;b style=&quot;&quot;&gt;Set&lt;/b&gt;&lt;/font&gt;" style="rounded=1;whiteSpace=wrap;html=1;fillColor=#d5e8d4;gradientColor=#97d077;strokeColor=#82b366;glass=1;" parent="eY0scxPz2fAlMnlfsHVv-2" vertex="1">
          <mxGeometry x="50" y="100" width="110" height="30" as="geometry" />
        </mxCell>
        <mxCell id="1d4aS4gsxzKnWtaEz5ml-28" value="&lt;font color=&quot;#00994d&quot;&gt;&lt;b&gt;Disjoint Set&lt;/b&gt;&lt;/font&gt;" style="rounded=1;whiteSpace=wrap;html=1;fillColor=#d5e8d4;gradientColor=#97d077;strokeColor=#82b366;glass=1;" parent="eY0scxPz2fAlMnlfsHVv-2" vertex="1">
          <mxGeometry x="50" y="140" width="80" height="20" as="geometry" />
        </mxCell>
      </root>
    </mxGraphModel>
  </diagram>
</mxfile>
